HIERARCHY
ROOT root
{
	OFFSET	0	13.1	24.9
	CHANNELS 6  Xposition Yposition Zposition Xrotation Yrotation Zrotation
	JOINT spine_1
	{
		OFFSET	0	9.99999	0
		CHANNELS 3  Xrotation Yrotation Zrotation
		JOINT spine_2
		{
			OFFSET	0	112	-10
			CHANNELS 3  Xrotation Yrotation Zrotation
			JOINT spine_3
			{
				OFFSET	0	206.5	19.3
				CHANNELS 3  Xrotation Yrotation Zrotation
				JOINT spine_4
				{
					OFFSET	0	110.4	14.6
					CHANNELS 3  Xrotation Yrotation Zrotation
					JOINT neck_1
					{
						OFFSET	0	71.8	-50.3
						CHANNELS 3  Xrotation Yrotation Zrotation
						JOINT neck_2
						{
							OFFSET	0	86.2	-25.8
							CHANNELS 3  Xrotation Yrotation Zrotation
							JOINT head_ee
							{
								OFFSET	0	179.8	-8.7
								CHANNELS 3  Xrotation Yrotation Zrotation
								End Site
								{
									OFFSET	1	0	0
								}
							}
						}
					}
					JOINT left_clavicle
					{
						OFFSET	-43.2	22.4	-70.8
						CHANNELS 3  Xrotation Yrotation Zrotation
						JOINT left_shoulder
						{
							OFFSET	-93.9	-5.79999	48.7
							CHANNELS 3  Xrotation Yrotation Zrotation
							JOINT left_elbow
							{
								OFFSET	-291.4	-30.8	15.2
								CHANNELS 3  Xrotation Yrotation Zrotation
								JOINT left_lowarm_twist
								{
									OFFSET	-110.7	-3.89999	13.6
									CHANNELS 3  Xrotation Yrotation Zrotation
									JOINT left_hand
									{
										OFFSET	-110.7	-3.89999	13.6
										CHANNELS 3  Xrotation Yrotation Zrotation
										JOINT left_ee
										{
											OFFSET	-80.8	-5.10001	12.1
											CHANNELS 3  Xrotation Yrotation Zrotation
											End Site
											{
												OFFSET	1	0	0
											}
										}
									}
								}
							}
						}
					}
					JOINT right_clavicle
					{
						OFFSET	43.2	22.4	-70.8
						CHANNELS 3  Xrotation Yrotation Zrotation
						JOINT right_shoulder
						{
							OFFSET	93.9	-5.79999	48.7
							CHANNELS 3  Xrotation Yrotation Zrotation
							JOINT right_elbow
							{
								OFFSET	291.4	-30.8	15.2
								CHANNELS 3  Xrotation Yrotation Zrotation
								JOINT right_lowarm_twist
								{
									OFFSET	110.7	-3.89999	13.6
									CHANNELS 3  Xrotation Yrotation Zrotation
									JOINT right_hand
									{
										OFFSET	110.7	-3.89999	13.6
										CHANNELS 3  Xrotation Yrotation Zrotation
										JOINT right_ee
										{
											OFFSET	80.8	-5.10001	12.1
											CHANNELS 3  Xrotation Yrotation Zrotation
											End Site
											{
												OFFSET	1	0	0
											}
										}
									}
								}
							}
						}
					}
				}
			}
		}
	}
	JOINT left_hip
	{
		OFFSET	-82.8	-127.5	0.300001
		CHANNELS 3  Xrotation Yrotation Zrotation
		JOINT left_knee
		{
			OFFSET	-28.2	-396.7	2.2
			CHANNELS 3  Xrotation Yrotation Zrotation
			JOINT left_ankle
			{
				OFFSET	-11.7	-411.3	35.4
				CHANNELS 3  Xrotation Yrotation Zrotation
				JOINT left_toes
				{
					OFFSET	0	-60	-88.6
					CHANNELS 3  Xrotation Yrotation Zrotation
					JOINT left_foot_ee
					{
						OFFSET	-22.5	-16.5	-42.2
						CHANNELS 3  Xrotation Yrotation Zrotation
						End Site
						{
							OFFSET	1	0	0
						}
					}
				}
			}
		}
	}
	JOINT right_hip
	{
		OFFSET	82.8	-127.5	0.300001
		CHANNELS 3  Xrotation Yrotation Zrotation
		JOINT right_knee
		{
			OFFSET	28.2	-396.7	2.2
			CHANNELS 3  Xrotation Yrotation Zrotation
			JOINT right_ankle
			{
				OFFSET	11.7	-411.3	35.4
				CHANNELS 3  Xrotation Yrotation Zrotation
				JOINT right_toes
				{
					OFFSET	0	-60	-88.6
					CHANNELS 3  Xrotation Yrotation Zrotation
					JOINT right_foot_ee
					{
						OFFSET	22.5	-16.5	-42.2
						CHANNELS 3  Xrotation Yrotation Zrotation
						End Site
						{
							OFFSET	1	0	0
						}
					}
				}
			}
		}
	}
}
MOTION
Frames: 9
Frame Time: 0.02
3482.29366849 713.867 -1542.07389833 -1.95158584461 75.3050647994 0.617747074152 0.737478 0.780683 0.676194 0.737431 0.736074 0.7245 0.746952 0.578633 0.855503 0.746627 0.706478 0.753388 -5.61852 19.1591 -4.56579 -5.24424 38.7441 -1.14851 -0.0 0.0 -0.0 0.471426 9.87634 1.98344 -31.3831 -19.1671 62.8065 1.30656 -32.9106 0.385927 -31.7749 -2.12188 3.40957 -1.34845 14.4123 -2.48906 -0.0 0.0 -0.0 7.58146 20.3738 -14.0202 -10.2996 26.5619 -63.3673 1.08352 28.2236 -0.272405 14.94 -0.282429 1.88217 0.521135 -12.9728 -8.64115 0.0 0.0 0.0 15.982 2.49238 -5.17152 -34.9951 -0.179434 5.28507 9.56132 22.6578 -1.40737 26.165 -0.0 -0.0 -0.0 0.0 -0.0 6.56313 -38.9777 3.73588 -19.0726 -0.30552 -2.89741 28.6129 31.3424 4.71205 10.3522 -0.0 -0.0 0.0 0.0 0.0 
3485.24926533 713.867 -1545.94124685 -1.67997574339 72.8622391974 0.335373396683 0.737478 0.780683 0.676194 0.737431 0.736074 0.7245 0.746952 0.578633 0.855503 0.746627 0.706478 0.753388 -5.61852 19.1591 -4.56579 -5.24424 38.7441 -1.14851 -0.0 0.0 -0.0 0.471426 9.87634 1.98344 -31.3831 -19.1671 62.8065 1.30656 -32.9106 0.385927 -31.7749 -2.12188 3.40957 -1.34845 14.4123 -2.48906 -0.0 0.0 -0.0 7.58146 20.3738 -14.0202 -10.2996 26.5619 -63.3673 1.08352 28.2236 -0.272405 14.94 -0.282429 1.88217 0.521135 -12.9728 -8.64115 0.0 0.0 0.0 15.982 2.49238 -5.17152 -34.9951 -0.179434 5.28507 9.56132 22.6578 -1.40737 26.165 -0.0 -0.0 -0.0 0.0 -0.0 6.56313 -38.9777 3.73588 -19.0726 -0.30552 -2.89741 28.6129 31.3424 4.71205 10.3522 -0.0 -0.0 0.0 0.0 0.0 
3479.18219986 717.984 -1546.99108444 -2.44953555201 73.507129731 1.07338011103 0.787339 0.773315 0.689125 0.787308 0.727898 0.736935 0.796885 0.568918 0.865585 0.796521 0.698477 0.764878 -5.73213 19.5208 -3.9227 -5.40503 38.9655 -0.371001 -0.0 0.0 -0.0 0.258202 10.3448 1.66756 -31.7091 -18.2632 63.5672 1.30542 -32.8878 0.385308 -31.456 -2.09168 3.38199 -1.30526 13.5079 -2.62999 -0.0 0.0 -0.0 7.74188 20.8946 -14.33 -8.9424 26.9281 -62.8085 1.18492 30.4106 -0.322063 14.742 -0.281916 1.85687 0.801894 -11.5334 -9.89864 0.0 0.0 0.0 17.2174 2.32397 -5.36812 -38.132 -0.352226 5.735 12.3302 22.7731 -1.7996 26.993 -0.0 -0.0 -0.0 0.0 -0.0 5.82668 -38.8625 3.23234 -18.4178 -0.311113 -2.7971 29.4081 31.5503 4.82873 11.1867 -0.0 -0.0 0.0 0.0 0.0 
3479.29338794 717.984 -1547.13739312 -2.43689069065 73.4191379924 1.06018965376 0.787339 0.773315 0.689125 0.787308 0.727898 0.736935 0.796885 0.568918 0.865585 0.796521 0.698477 0.764878 -5.73213 19.5208 -3.9227 -5.40503 38.9655 -0.371001 -0.0 0.0 -0.0 0.258202 10.3448 1.66756 -31.7091 -18.2632 63.5672 1.30542 -32.8878 0.385308 -31.456 -2.09168 3.38199 -1.30526 13.5079 -2.62999 -0.0 0.0 -0.0 7.74188 20.8946 -14.33 -8.9424 26.9281 -62.8085 1.18492 30.4106 -0.322063 14.742 -0.281916 1.85687 0.801894 -11.5334 -9.89864 0.0 0.0 0.0 17.2174 2.32397 -5.36812 -38.132 -0.352226 5.735 12.3302 22.7731 -1.7996 26.993 -0.0 -0.0 -0.0 0.0 -0.0 5.82668 -38.8625 3.23234 -18.4178 -0.311113 -2.7971 29.4081 31.5503 4.82873 11.1867 -0.0 -0.0 0.0 0.0 0.0 
3464.00778589 714.871 -1546.98653102 -6.43717935723 75.2468885903 5.48917963878 0.843213 0.819577 0.714465 0.843166 0.772454 0.765168 0.853712 0.60796 0.901414 0.853348 0.742688 0.794092 -3.54601 19.6377 -3.91529 -2.78553 38.8699 -1.22234 -0.0 0.0 -0.0 -0.413962 11.171 0.619199 -33.1731 -16.6934 64.5461 1.30276 -32.8346 0.383865 -30.3791 -1.99083 3.28763 -1.00404 11.9571 -1.42646 -0.0 0.0 -0.0 8.19802 21.6558 -15.2706 -4.32448 27.473 -61.229 1.20745 30.8838 -0.333548 14.8826 -0.282289 1.87483 1.02683 -7.59577 -9.87673 0.0 0.0 0.0 28.9594 1.02081 -6.27671 -42.6398 -0.643195 6.36382 10.9864 22.5468 -1.60897 27.1055 -0.0 -0.0 -0.0 0.0 -0.0 3.49565 -38.8472 0.777888 -15.6923 -0.322063 -2.37911 29.5941 30.3947 4.77975 11.8428 -0.0 -0.0 0.0 0.0 0.0 
3462.86907461 699.255 -1551.435929 -10.9153683013 76.202640855 10.1905507616 0.817588 0.842676 0.760146 0.81756 0.7926 0.812226 0.829054 0.618115 0.951763 0.828598 0.760666 0.842207 -3.58505 19.7478 -3.45411 -2.85811 38.7331 -0.702298 -0.0 0.0 -0.0 -1.05242 11.5629 -0.409136 -33.8436 -16.0345 64.7619 1.29178 -32.6141 0.377931 -30.1296 -1.96773 3.26551 -0.884869 11.4907 -0.875903 -0.0 0.0 -0.0 8.67694 21.8572 -16.3118 -0.517458 28.0149 -60.4274 1.23024 31.3578 -0.345327 15.7488 -0.283616 1.98546 1.04045 -5.61319 -9.20175 0.0 0.0 0.0 32.5009 -0.702013 -7.93581 -43.7777 -0.724427 6.51886 10.5915 22.5045 -1.55283 27.2651 -0.0 -0.0 -0.0 0.0 -0.0 2.46495 -38.8969 -0.369347 -14.3341 -0.320094 -2.17073 29.8258 31.377 4.87114 12.1135 -0.0 -0.0 0.0 0.0 0.0 
3456.91096199 700.638 -1553.7095498 -9.79324162766 78.0097973566 9.57875817052 0.775075 0.74299 0.870916 0.775235 0.686067 0.916426 0.786511 0.492456 1.03344 0.785609 0.649481 0.942707 -3.59659 20.0255 -3.24917 -2.86613 39.0918 -0.444163 -0.0 0.0 -0.0 -1.31762 11.8729 -0.811378 -34.2654 -15.6774 65.087 1.29393 -32.6574 0.379091 -29.9541 -1.95153 3.24988 -0.756814 11.2076 -0.185562 -0.0 0.0 -0.0 9.0273 21.9443 -17.0813 1.71455 28.2245 -60.4558 1.24614 31.6858 -0.353644 16.8015 -0.282978 2.11992 1.05288 -4.19602 -8.72964 0.0 0.0 0.0 34.0338 -1.83817 -8.82998 -44.013 -0.741606 6.55071 7.59982 21.901 -1.12154 26.7486 -0.0 -0.0 -0.0 0.0 -0.0 1.74607 -38.9223 -1.13982 -13.2223 -0.314807 -2.00024 29.2767 31.3637 4.79976 12.2985 -0.0 -0.0 0.0 0.0 0.0 
3443.10179722 708.412 -1552.23670499 -10.3861695666 79.8380994298 9.52659494171 0.805698 0.699142 1.41504 0.806606 0.607692 1.45665 0.82264 0.310365 1.5475 0.819722 0.550842 1.47908 -4.98547 19.8939 -3.04171 -4.5439 38.9154 0.304717 -0.0 0.0 -0.0 -1.9522 12.5995 -1.76154 -35.2864 -14.8082 65.533 1.28606 -32.4988 0.374854 -29.7715 -1.93473 3.23358 -0.551632 10.8647 0.973353 -0.0 0.0 -0.0 9.597 22.0967 -18.3367 5.34055 28.5581 -59.7787 1.35417 33.8526 -0.412126 18.8078 -0.274922 2.37603 1.11191 -1.62775 -8.10429 0.0 0.0 0.0 37.8518 -3.98014 -9.82894 -41.9217 -0.593529 6.26518 1.68178 21.0477 -0.251246 25.5576 -0.0 -0.0 -0.0 0.0 -0.0 -0.120429 -38.6523 -1.86604 -12.1454 -0.306533 -1.83522 27.6142 30.6261 4.53662 12.3698 -0.0 -0.0 0.0 0.0 0.0 
3442.62033329 708.412 -1551.41511952 -10.759031763 80.1898377917 9.90519104955 0.805698 0.699142 1.41504 0.806606 0.607692 1.45665 0.82264 0.310365 1.5475 0.819722 0.550842 1.47908 -4.98547 19.8939 -3.04171 -4.5439 38.9154 0.304717 -0.0 0.0 -0.0 -1.9522 12.5995 -1.76154 -35.2864 -14.8082 65.533 1.28606 -32.4988 0.374854 -29.7715 -1.93473 3.23358 -0.551632 10.8647 0.973353 -0.0 0.0 -0.0 9.597 22.0967 -18.3367 5.34055 28.5581 -59.7787 1.35417 33.8526 -0.412126 18.8078 -0.274922 2.37603 1.11191 -1.62775 -8.10429 0.0 0.0 0.0 37.8518 -3.98014 -9.82894 -41.9217 -0.593529 6.26518 1.68178 21.0477 -0.251246 25.5576 -0.0 -0.0 -0.0 0.0 -0.0 -0.120429 -38.6523 -1.86604 -12.1454 -0.306533 -1.83522 27.6142 30.6261 4.53662 12.3698 -0.0 -0.0 0.0 0.0 0.0 
